<?xml version="1.0" encoding="utf-8"?>
<!-- Generator: Adobe Illustrator 18.1.1, SVG Export Plug-In . SVG Version: 6.00 Build 0)  -->
<svg version="1.1" xmlns="http://www.w3.org/2000/svg" xmlns:xlink="http://www.w3.org/1999/xlink" x="0px" y="0px"
	 viewBox="0 0 646 332" enable-background="new 0 0 646 332" xml:space="preserve">
<g id="Слой_2">
	<rect x="-28" y="-51" width="708" height="438"/>
</g>
<g id="_x31_">
	<g>
		<path fill="#FFFEF9" stroke="#000000" stroke-width="0.25" stroke-miterlimit="10" d="M109.8,192.9L63.6,71.9h-0.7
			c0.9,9.6,1.3,21,1.3,34.1v86.8H49.5V56.4h23.9L116.5,169h0.7l43.6-112.5h23.7v136.4h-15.9V105c0-10.1,0.4-21,1.3-32.8h-0.7
			l-46.7,120.7H109.8z"/>
		<path fill="#FFFEF9" stroke="#000000" stroke-width="0.25" stroke-miterlimit="10" d="M298,192.9l-76,0V56.4l76,0v14.1h-60.2v43.9
			h56.5v14h-56.5v50.2H298V192.9z"/>
		<path fill="#FFFEF9" stroke="#000000" stroke-width="0.25" stroke-miterlimit="10" d="M328.3,192.9V56.4h15.9v122l60.2,0v14.4
			H328.3z"/>
		<path fill="#FFFEF9" stroke="#000000" stroke-width="0.25" stroke-miterlimit="10" d="M427.4,192.9V56.4h15.9v122h60.2v14.4H427.4
			z"/>
		<path fill="#FFFEF9" stroke="#000000" stroke-width="0.25" stroke-miterlimit="10" d="M602.7,192.9l-76,0V56.4l76,0v14.1l-60.2,0
			v43.9l56.5,0v14h-56.5v50.2h60.2V192.9z"/>
	</g>
	<g>
		<path fill="#FFFEF9" stroke="#FFFEF9" stroke-miterlimit="10" d="M48.7,246.5h3.5v11.4l12.6-11.4h4.9l-13.8,12.4l14.8,14.7h-4.9
			l-12.5-12.5l-1.1,1v11.6h-3.5V246.5z"/>
		<path fill="#FFFEF9" stroke="#FFFEF9" stroke-miterlimit="10" d="M87.2,245.8c4.2,0,7.6,1.5,10.4,4.5c2.5,2.8,3.7,6,3.7,9.8
			c0,3.8-1.3,7.1-4,9.9c-2.6,2.8-6,4.2-10.2,4.2c-4.2,0-7.6-1.4-10.2-4.2c-2.6-2.8-4-6.1-4-9.9c0-3.8,1.2-7,3.7-9.8
			C79.5,247.3,83,245.8,87.2,245.8z M87.2,249.2c-2.9,0-5.4,1.1-7.5,3.2c-2.1,2.1-3.1,4.7-3.1,7.8c0,2,0.5,3.8,1.4,5.5
			c0.9,1.7,2.2,3,3.9,3.9c1.6,0.9,3.4,1.4,5.3,1.4c1.9,0,3.7-0.5,5.3-1.4c1.6-0.9,2.9-2.2,3.9-3.9c0.9-1.7,1.4-3.5,1.4-5.5
			c0-3-1-5.6-3.1-7.8C92.5,250.3,90,249.2,87.2,249.2z"/>
		<path fill="#FFFEF9" stroke="#FFFEF9" stroke-miterlimit="10" d="M130.7,273.6H127l-9.1-19.7l-9,19.7h-3.7l12.4-27.1h0.6
			L130.7,273.6z"/>
		<path fill="#FFFEF9" stroke="#FFFEF9" stroke-miterlimit="10" d="M139.5,249.6v24H136v-27.1h13.7v3.1H139.5z"/>
		<path fill="#FFFEF9" stroke="#FFFEF9" stroke-miterlimit="10" d="M167.3,245.8c4.2,0,7.6,1.5,10.4,4.5c2.5,2.8,3.7,6,3.7,9.8
			c0,3.8-1.3,7.1-4,9.9c-2.6,2.8-6,4.2-10.2,4.2c-4.2,0-7.6-1.4-10.2-4.2c-2.6-2.8-4-6.1-4-9.9c0-3.8,1.2-7,3.7-9.8
			C159.6,247.3,163.1,245.8,167.3,245.8z M167.3,249.2c-2.9,0-5.4,1.1-7.5,3.2c-2.1,2.1-3.1,4.7-3.1,7.8c0,2,0.5,3.8,1.4,5.5
			c0.9,1.7,2.2,3,3.9,3.9c1.6,0.9,3.4,1.4,5.3,1.4c1.9,0,3.7-0.5,5.3-1.4c1.6-0.9,2.9-2.2,3.9-3.9c0.9-1.7,1.4-3.5,1.4-5.5
			c0-3-1-5.6-3.1-7.8C172.6,250.3,170.2,249.2,167.3,249.2z"/>
		<path fill="#FFFEF9" stroke="#FFFEF9" stroke-miterlimit="10" d="M184.8,246.5h17.8v3h-7.2v24.1H192v-24.1h-7.2V246.5z"/>
		<path fill="#FFFEF9" stroke="#FFFEF9" stroke-miterlimit="10" d="M207.4,246.5h3.5v11.4l12.6-11.4h4.9l-13.8,12.4l14.8,14.7h-4.9
			L212,261.1l-1.1,1v11.6h-3.5V246.5z"/>
		<path fill="#FFFEF9" stroke="#FFFEF9" stroke-miterlimit="10" d="M236.5,246.5v20.1l19.9-20.1h0.3v27.1h-3.5v-19.9l-19.8,19.9H233
			v-27.1H236.5z"/>
		<path fill="#FFFEF9" stroke="#FFFEF9" stroke-miterlimit="10" d="M267.9,266.9l3.4,1.6l-5.1,9.4l-2.5-1L267.9,266.9z"/>
		<path fill="#FFFEF9" stroke="#FFFEF9" stroke-miterlimit="10" d="M304.8,261.4h-6.1c-2.8,0-4.8-0.7-6.2-2.1c-1.3-1.4-2-3.4-2-6
			v-6.8h3.4v4.9c0,3.2,0.4,5.1,1.3,5.9c0.9,0.8,2.4,1.1,4.4,1.1h5.1v-11.9h3.5v27.1h-3.5V261.4z"/>
		<path fill="#FFFEF9" stroke="#FFFEF9" stroke-miterlimit="10" d="M313.2,246.5h3.7l9.3,20.9l9-20.9h3.7l-16.2,37h-3.7l5.2-12
			L313.2,246.5z"/>
		<path fill="#FFFEF9" stroke="#FFFEF9" stroke-miterlimit="10" d="M366.4,273.6h-3.7l-9.1-19.7l-9,19.7h-3.7l12.4-27.1h0.6
			L366.4,273.6z"/>
		<path fill="#FFFEF9" stroke="#FFFEF9" stroke-miterlimit="10" d="M371.7,246.5h3.5v11.4l12.6-11.4h4.9l-13.8,12.4l14.8,14.7h-4.9
			l-12.5-12.5l-1.1,1v11.6h-3.5V246.5z"/>
		<path fill="#FFFEF9" stroke="#FFFEF9" stroke-miterlimit="10" d="M400.8,246.5v20.1l19.9-20.1h0.3v27.1h-3.5v-19.9l-19.8,19.9
			h-0.4v-27.1H400.8z"/>
		<path fill="#FFFEF9" stroke="#FFFEF9" stroke-miterlimit="10" d="M432.2,266.9l3.4,1.6l-5.1,9.4l-2.5-1L432.2,266.9z"/>
		<path fill="#FFFEF9" stroke="#FFFEF9" stroke-miterlimit="10" d="M476.3,260.5h-15.8v13.1H457v-27.1h3.5v10.8h15.8v-10.8h3.5v27.1
			h-3.5V260.5z"/>
		<path fill="#FFFEF9" stroke="#FFFEF9" stroke-miterlimit="10" d="M500.4,245.8c4.2,0,7.6,1.5,10.4,4.5c2.5,2.8,3.7,6,3.7,9.8
			c0,3.8-1.3,7.1-4,9.9c-2.6,2.8-6,4.2-10.2,4.2c-4.2,0-7.6-1.4-10.2-4.2c-2.6-2.8-4-6.1-4-9.9c0-3.8,1.2-7,3.7-9.8
			C492.7,247.3,496.2,245.8,500.4,245.8z M500.4,249.2c-2.9,0-5.4,1.1-7.5,3.2c-2.1,2.1-3.1,4.7-3.1,7.8c0,2,0.5,3.8,1.4,5.5
			c0.9,1.7,2.2,3,3.9,3.9c1.6,0.9,3.4,1.4,5.3,1.4s3.7-0.5,5.3-1.4c1.6-0.9,2.9-2.2,3.9-3.9c0.9-1.7,1.4-3.5,1.4-5.5
			c0-3-1-5.6-3.1-7.8C505.7,250.3,503.3,249.2,500.4,249.2z"/>
		<path fill="#FFFEF9" stroke="#FFFEF9" stroke-miterlimit="10" d="M547.3,252.1l-2.8,1.7c-2.4-3.2-5.6-4.8-9.8-4.8
			c-3.3,0-6,1.1-8.2,3.2c-2.2,2.1-3.3,4.7-3.3,7.7c0,2,0.5,3.8,1.5,5.6c1,1.7,2.4,3.1,4.1,4.1c1.8,1,3.7,1.4,5.9,1.4
			c4,0,7.2-1.6,9.8-4.8l2.8,1.8c-1.3,2-3,3.5-5.2,4.5c-2.2,1.1-4.7,1.6-7.5,1.6c-4.3,0-7.8-1.4-10.7-4.1c-2.8-2.7-4.2-6-4.2-9.9
			c0-2.6,0.7-5.1,2-7.3c1.3-2.3,3.1-4,5.4-5.3c2.3-1.3,4.9-1.9,7.7-1.9c1.8,0,3.5,0.3,5.2,0.8c1.7,0.5,3.1,1.3,4.2,2.1
			C545.5,249.6,546.5,250.8,547.3,252.1z"/>
		<path fill="#FFFEF9" stroke="#FFFEF9" stroke-miterlimit="10" d="M554,246.5h3.5v11.4l12.6-11.4h4.9l-13.8,12.4l14.8,14.7H571
			l-12.5-12.5l-1.1,1v11.6H554V246.5z"/>
		<path fill="#FFFEF9" stroke="#FFFEF9" stroke-miterlimit="10" d="M583.1,246.5v20.1l19.9-20.1h0.3v27.1h-3.5v-19.9L580,273.6h-0.4
			v-27.1H583.1z"/>
	</g>
</g>
</svg>
