<?xml version="1.0" encoding="UTF-8"?>
<svg width="326px" height="60px" viewBox="0 0 326 60" version="1.1" xmlns="http://www.w3.org/2000/svg" xmlns:xlink="http://www.w3.org/1999/xlink">
    <!-- Generator: Sketch 41 (35326) - http://www.bohemiancoding.com/sketch -->
    <title>_2248766746656</title>
    <desc>Created with Sketch.</desc>
    <defs></defs>
    <g id="Page-1" stroke="none" stroke-width="1" fill="none" fill-rule="evenodd">
        <g id="Слой_x0020_1" fill="#FEFEFE">
            <g id="_2248766746656" transform="translate(0.287879, 0.241686)">
                <path d="M188.699704,51.6073301 C188.699704,50.6470792 189.293917,47.1138483 189.677679,46.0427993 C190.073821,45.2179684 190.370927,44.0607429 190.866105,43.2851557 C191.348903,43.5929284 191.249867,43.6667938 191.646009,44.0976756 C193.317232,46.079732 195.186527,46.1905302 197.055821,47.557041 C197.650034,47.9879229 198.343282,48.0864101 199.420293,48.6773338 C199.123187,49.7730046 198.046176,50.6963228 197.352928,51.4103555 C197.055821,51.6442628 196.956786,51.7673719 196.672059,51.9766573 L195.483633,53.2693028 C194.703729,54.0941337 194.010481,54.3526628 192.93347,54.4880828 C192.636364,54.5250155 190.668034,54.6481246 190.668034,54.6481246 C189.87575,54.4634609 188.699704,52.6045137 188.699704,51.6073301 Z M236.905218,50.2777519 C236.905218,51.1025828 236.608111,51.2010701 236.211969,51.6442628 C235.432065,52.3706064 235.134959,52.3336737 234.243639,52.3336737 C233.859877,52.3336737 233.760841,52.0997664 233.562771,51.8658592 C233.166629,51.5334646 233.166629,51.6688846 232.869522,51.2256919 C232.671451,50.8932974 232.671451,50.8440537 232.374345,50.5116592 C232.188653,50.2038865 232.089618,50.0807774 231.792512,49.7730046 C231.495405,49.2313247 231.099263,48.8496865 231.000228,48.1356538 C230.802157,47.5201083 230.406015,46.1905302 231.000228,46.1289756 C231.39637,46.0920429 231.990583,47.0153611 232.275309,47.2492683 C233.760841,48.3818719 234.738817,49.7976265 236.905218,50.2777519 Z M237.883193,48.6773338 C236.806182,48.6773338 235.729171,47.840192 234.837852,47.1754029 C233.760841,46.2890174 231.891547,44.590112 231.891547,43.1251138 C231.891547,40.6998648 234.144604,39.2348666 235.134959,37.5852048 C235.432065,37.154323 235.33303,37.1420121 235.729171,36.8588612 C236.211969,36.5510885 236.112934,36.8588612 236.509076,36.4402903 C236.905218,35.9109212 237.103289,34.7167631 238.675477,33.6334031 L239.653452,32.7593286 C240.544771,31.7744558 240.148629,31.7252122 241.039948,31.7252122 C241.43609,31.7252122 241.720817,32.2545813 241.720817,32.4392449 C241.720817,35.0122249 241.720817,37.7206248 241.138984,40.3059157 L240.148629,43.1866684 C239.851523,43.8268357 239.752487,44.5285575 239.566796,45.1933465 C239.368725,45.8458247 238.576441,48.6773338 237.883193,48.6773338 Z M191.163211,35.3815522 C191.249867,31.9344977 193.614339,28.9429468 197.550999,28.9429468 C198.925116,28.9429468 199.222222,29.1029886 200.410648,30.1617268 L201.8838,32.0576068 C202.081871,32.5992867 201.982836,32.697774 202.378978,33.2025213 C203.555024,34.9137376 202.564669,34.6552085 203.356953,35.6893249 C204.149237,36.6741976 202.960811,34.9506703 203.555024,35.9232321 C203.85213,36.341803 203.85213,36.6865085 203.85213,37.2774321 C203.85213,38.0037757 203.753095,36.9081049 203.455988,38.5454557 C203.158882,40.7367975 202.76274,41.9555775 201.982836,43.9499447 C201.982836,43.9868775 201.982836,44.0976756 201.8838,44.1592302 C200.509683,47.5201083 200.311612,47.2492683 198.727045,46.7075883 C198.145212,46.4736811 198.046176,46.3875047 197.650034,46.0427993 C196.956786,45.5503629 195.384598,45.4272538 193.911445,43.0266266 C192.141186,40.0720084 192.339257,40.6259993 193.416268,39.5426394 C194.010481,39.0378921 193.713374,38.6193212 196.275917,37.1789449 C196.672059,36.9573485 196.573023,36.9081049 196.956786,36.6865085 L196.176882,35.3446194 C195.978811,34.864494 196.374953,35.2461322 195.384598,34.8275613 L194.9018,34.5813431 C193.317232,33.7195795 192.438293,34.5197885 191.546973,35.1599558 C191.348903,35.3446194 191.546973,35.2953758 191.163211,35.3815522 Z M119.040632,42.9896938 C119.040632,43.4205757 118.161692,44.0976756 117.864586,44.3931375 C117.171337,45.0456156 117.270373,45.2302793 116.775196,46.0181774 C116.292398,46.8553192 115.995291,46.6583447 115.500114,47.3477556 L112.355738,50.9302301 C112.058631,51.2256919 111.86056,51.4349773 111.563454,51.6442628 C111.080656,51.9397246 110.189337,52.0751446 109.595124,52.3336737 C108.221007,52.9861519 108.617149,53.0600173 106.84689,53.0600173 C106.054606,53.0600173 105.472773,51.0287174 105.472773,50.0069119 C105.7575,46.8430083 105.856535,47.4708647 106.945925,44.7870865 C107.044961,44.319272 107.923901,42.7680975 108.320043,42.300283 L109.496089,40.810663 C109.595124,40.7121757 109.595124,40.6259993 109.69416,40.539823 L109.892231,40.2074284 C109.991266,40.1458739 110.585479,39.7396139 110.585479,39.6780594 C111.179692,38.9394048 110.288372,38.7424303 111.365383,38.2499939 C113.333713,37.2528103 112.652844,37.0065921 113.82889,36.341803 C115.599149,35.2461322 115.401078,34.8275613 116.68854,34.2981922 C117.468444,33.9657976 117.072302,33.9288649 117.864586,33.7318904 C118.842561,33.4610504 119.931951,33.3010086 120.909926,33.7688231 C120.909926,34.4213013 120.711855,34.2489485 120.513784,34.8152503 C120.328093,35.2830649 120.427128,35.4923503 120.328093,36.0586521 L120.030987,37.2158776 C119.436774,39.5057066 119.73388,37.4497848 119.634845,39.7765466 C119.535809,40.675243 118.842561,41.0938139 118.743525,41.8694011 C118.743525,42.4726357 119.040632,42.3249048 119.040632,42.9896938 Z M316.987772,39.1733121 C314.920407,40.2443612 315.613655,41.2415448 314.623301,41.9678884 C314.128123,42.3249048 313.447254,42.3987702 313.051113,42.8665848 C312.258829,43.7652811 312.952077,43.9991884 310.686641,43.9991884 C310.686641,43.2236011 311.181818,40.8352848 311.57796,40.0966303 C311.875066,39.5303285 312.073137,39.0748248 312.258829,38.4715903 C312.555935,37.8191121 312.952077,37.5359612 313.249184,36.9204158 C314.623301,34.0150413 315.316549,34.0150413 316.39356,32.7223958 C317.581985,31.208154 319.055138,31.6021031 319.055138,32.5992867 C319.055138,33.4364285 318.857067,34.5320994 318.559961,35.1845776 C318.163819,36.1571394 318.460925,35.947854 317.866712,36.748063 C317.383914,37.4374739 316.987772,38.2130612 316.987772,39.1733121 Z M139.899977,43.9991884 L139.021037,43.9991884 C139.021037,42.7927193 139.4048,41.9555775 139.602871,41.0691921 C139.701906,40.2936048 141.670236,36.4156685 141.967343,36.083274 C143.044353,34.4828558 142.846282,34.5567213 144.133743,33.4364285 C144.43085,33.1286558 144.43085,33.0547904 144.715577,32.7223958 C146.102073,31.1589104 147.377155,31.7005904 147.377155,32.5992867 C147.377155,33.3010086 147.27812,34.051974 147.080049,34.6305867 C146.981013,35.1599558 146.881978,35.1107122 146.782942,35.4554176 C146.584871,35.947854 146.683907,35.947854 146.498215,36.3910467 C146.300144,36.8096176 146.300144,36.4156685 145.606896,37.8683558 C145.210754,38.7054976 145.507861,38.8039848 144.814612,39.4441521 C142.660591,41.5616284 144.034708,41.3769648 142.846282,42.0909975 C142.264449,42.3987702 141.769272,42.4726357 141.37313,42.965072 C141.175059,43.1620466 140.976988,43.9991884 139.899977,43.9991884 Z M258.160705,43.9991884 L257.269386,43.9991884 C257.269386,42.029443 258.160705,40.1951175 258.940609,38.4469685 C259.237716,37.7452467 261.206045,34.4828558 261.800258,33.9534867 C262.084985,33.6334031 262.084985,33.6949576 262.382092,33.4364285 C263.273411,32.6362195 263.669553,31.1096668 265.538847,32.020674 C265.724539,32.833194 265.637883,34.0642849 265.241741,34.9506703 L264.548492,36.7111303 C264.251386,37.154323 264.251386,37.0558358 264.053315,37.5728939 C263.95428,37.8191121 263.768588,38.0407085 263.669553,38.373103 C263.471482,39.1363794 263.855244,38.7178085 263.273411,39.2841103 C262.976304,39.6411266 262.382092,40.1089412 262.084985,40.4782684 C261.701223,41.2046121 261.98595,41.3030993 261.206045,41.9925102 C260.710868,42.3987702 260.116655,42.423392 259.633857,42.9527611 C259.13868,43.3959538 259.13868,43.9991884 258.160705,43.9991884 Z M290.916686,44.2946502 C291.015721,43.7529702 291.114757,43.5929284 291.213792,43.235912 L291.993696,40.0966303 C292.191767,39.3702866 292.488874,38.9394048 292.78598,38.1761285 C292.885016,37.8683558 292.885016,37.4374739 292.984051,37.1050794 C293.083087,36.8588612 293.380193,36.477223 293.479228,36.1571394 C293.862991,35.4923503 294.061062,35.0614685 294.457204,34.4459231 L298.492899,27.6503014 C298.889041,27.1209323 299.186147,26.6531177 299.56991,26.1114378 C301.055442,24.0924487 300.362193,24.0924487 302.528594,22.3319887 C303.407534,21.6302669 303.70464,20.8300578 304.59596,20.2760669 C305.078757,19.9682942 307.344194,18.244767 307.839371,18.1339688 C308.235513,18.4663633 308.235513,18.4663633 308.334548,19.0080433 C308.334548,19.3650597 308.433584,19.8451851 308.433584,20.1652688 C308.433584,20.4607306 308.235513,20.9654778 308.235513,21.2363178 C307.6413,24.7449269 307.542265,22.8859796 307.146123,24.4125323 C306.749981,25.7421105 307.245158,25.2866069 306.366219,26.4068996 C305.871041,27.0101341 305.67297,27.5148814 305.375864,28.2166032 L303.011392,31.4297504 C302.726665,31.7621449 302.033417,32.3284467 301.73631,32.8947486 C301.142098,33.916554 301.934381,33.6580249 300.6593,34.4828558 C300.362193,34.6798303 300.164122,34.864494 299.966051,35.1230231 L299.56991,35.5785267 C299.470874,35.5908376 299.470874,35.6277703 299.470874,35.6523921 L298.096757,37.5359612 C297.700615,38.4469685 297.60158,38.4346576 296.821675,38.9763376 C296.227463,39.3333539 295.831321,39.9119666 295.150452,40.5767557 C294.160097,41.5246957 294.75431,41.2907884 293.380193,42.4603248 C292.78598,43.0020048 291.510898,44.1592302 290.916686,44.2946502 Z M273.201716,44.2946502 L274.291107,39.9735212 C274.489177,39.2348666 274.786284,38.7670521 274.984355,38.0530194 C275.368117,36.624954 275.863295,35.6893249 276.655578,34.322814 C277.633554,32.7716395 278.524873,30.678785 279.700919,29.0045013 L282.548189,25.0773214 C282.647224,24.7449269 282.74626,24.4987087 282.944331,24.1663142 L284.231792,22.6890051 C284.615554,22.4181651 284.615554,22.4674087 285.011696,22.1227033 C285.209767,21.888796 285.407838,21.7041324 285.605909,21.4579142 C285.903015,21.1255197 285.903015,21.0024106 286.187742,20.7315706 C286.484848,20.4730415 286.781955,20.3376215 287.079061,20.1037142 L289.926331,18.1832124 C291.213792,18.2078343 290.223437,22.6274505 290.124402,22.9844669 C289.740639,23.8831632 289.542569,23.4892142 289.245462,24.7572378 C289.047391,26.0498832 288.84932,25.7790432 288.354143,26.6408068 C287.376168,28.1427377 288.453178,27.2563523 286.286778,29.9770632 L285.110731,31.6021031 C284.91266,31.8606322 284.132756,32.291514 283.83565,33.104034 C282.944331,35.4800394 283.736614,33.1902104 281.669249,35.6523921 L281.372142,36.0586521 C280.876965,36.7726849 280.678894,36.8096176 280.295132,37.6221376 C279.799954,38.6685648 279.106706,38.779363 278.524873,39.2717994 C278.128731,39.6657484 278.326802,39.7026812 277.336447,40.6629321 C276.160401,41.6970484 276.940305,41.4631411 274.786284,43.1251138 C274.192071,43.5683066 273.994,44.1222975 273.201716,44.2946502 Z M123.472469,38.8778503 C123.472469,38.0776412 123.67054,38.0530194 123.967646,37.3389867 C124.165717,36.5880212 124.648515,34.5320994 124.846586,34.187394 C125.341763,33.4979831 125.242728,33.9534867 125.63887,32.833194 L127.508164,28.5736195 C127.706235,28.0688723 127.990962,27.7487886 128.189033,27.2563523 C128.48614,26.6777396 128.585175,26.345345 128.684211,25.7174887 C129.278423,23.5630796 131.54386,21.0639651 132.026658,19.7713197 C132.026658,19.598967 132.224728,19.328127 132.323764,19.1065306 C132.917977,18.4417415 133.895952,17.4445579 134.787271,17.2475834 C134.787271,17.838507 134.886307,19.7466979 134.688236,20.2268233 L134.292094,20.6330833 L134.292094,20.7315706 C133.994987,21.2363178 134.391129,21.1624524 133.697881,22.3566105 C133.017012,23.649256 133.017012,24.7203051 131.828587,26.5915632 C130.256399,29.0414341 130.256399,30.137105 129.773601,30.7403395 C129.57553,31.1342886 129.179388,31.5651704 128.882281,31.8975649 C127.508164,33.4979831 128.189033,32.7223958 127.211058,34.2612594 L125.63887,36.7849958 C125.242728,37.2158776 123.868611,38.779363 123.472469,38.8778503 Z M122.383079,32.3038249 L120.61282,31.6021031 C118.557834,30.4694995 117.963621,29.6446686 115.401078,30.3094577 C114.621174,30.4941213 114.72021,30.5310541 114.125997,30.9250031 L112.850915,31.7375231 C111.86056,32.5377322 111.66249,32.4392449 110.585479,33.2517649 C110.288372,33.4856722 110.090302,33.5841595 109.793195,33.7934449 C109.310397,34.1627722 109.013291,34.5320994 108.419078,34.8891158 C107.626794,35.3815522 107.626794,35.4800394 107.044961,36.1448285 C106.351713,36.9204158 106.450748,36.7726849 106.054606,37.6467594 C105.856535,38.0037757 105.955571,37.7206248 105.7575,38.0037757 L105.076631,39.2717994 C103.405407,41.7955357 103.888205,43.7652811 102.712159,44.590112 L101.040936,45.5626738 C100.545758,45.8458247 99.963925,46.621412 98.8745348,47.2246465 C98.5774284,47.3846883 98.3793575,47.5447301 98.0946305,47.7540156 C97.6984886,48.1356538 97.2033113,48.1110319 96.6090985,48.4680483 L95.3340169,49.046661 C94.7398041,49.2682574 95.4330523,49.2682574 93.8608643,49.2682574 C91.7934989,49.2682574 92.7714741,46.8430083 92.6724387,45.7104047 C92.4867472,44.9471284 92.3877117,44.9225065 92.6724387,44.1961629 C92.8705096,43.2974666 93.4647224,42.6572993 93.8608643,41.7093593 C94.0589352,41.1430575 94.1579707,40.8722175 94.3560416,40.3797812 C95.1359459,39.0748248 95.6311233,39.5303285 94.7398041,38.0530194 C94.4426977,37.5728939 93.0685805,36.8465503 92.5734032,36.8465503 C91.8925344,36.8465503 91.4963925,37.8437339 91.2983216,38.3361703 L90.2213109,40.2320503 C89.9242045,41.1307466 89.7261335,42.1033084 88.9338498,42.7557866 C88.4510519,43.235912 88.6491228,43.4205757 88.1539455,43.8268357 C87.5597327,44.319272 87.6587681,43.9253229 87.0645553,44.6639775 L84.3163211,47.7540156 C83.9201792,48.2095192 83.9201792,48.4188047 83.5240374,48.8743083 C82.942204,49.5021647 82.8431685,49.2313247 82.2489557,49.6129628 C81.7537784,49.9084246 81.7537784,50.1792646 81.2709805,50.5732137 C80.4786967,51.1764483 79.9835194,51.7919937 79.1045796,52.2351864 C78.8074732,52.4075392 78.4113314,52.6660682 78.0151895,52.6906901 C76.5420369,52.7276228 77.2352852,50.7948101 77.3343207,49.9822901 C77.4333561,48.1479647 77.8171186,46.4490592 78.6094023,44.9840611 C79.3026506,43.5190629 79.3026506,43.100492 80.2806258,41.6724266 L81.171945,40.0473866 C81.3700159,39.6165048 81.8528139,39.0378921 82.1499203,38.6193212 L83.5240374,36.9204158 C84.3163211,36.1202067 85.2942963,35.8247449 86.0865801,35.0491576 C87.6587681,33.4610504 88.5500873,33.7565122 89.9242045,32.7347067 L90.3203463,32.5007995 C91.0012152,32.0329849 91.8925344,31.8729431 92.7714741,31.7375231 C93.6627933,31.6267249 94.0589352,31.5897922 95.0369105,31.5897922 C94.937875,32.0329849 94.8388395,32.4023122 94.6407686,32.7716395 C94.1579707,33.8919322 94.0589352,33.6210922 94.0589352,34.7906285 C94.0589352,35.5785267 95.5320878,35.812434 96.1263006,35.812434 C96.6090985,35.812434 96.510063,35.4800394 96.708134,35.0860903 C96.8071694,34.729074 96.9062049,34.4828558 97.0052404,34.1258394 C98.0946305,31.7621449 97.995595,32.3900013 96.4110276,30.4325668 L95.6311233,29.2630304 C95.6311233,29.2137868 95.5320878,29.1152995 95.4330523,29.0414341 C93.8608643,27.6503014 91.9915698,27.7364777 90.1222754,28.6844177 C89.4290271,29.0660559 88.7481583,29.2753413 88.2529809,29.9031977 C87.1635908,31.208154 85.2942963,31.0358013 84.4153566,32.3900013 C83.7221083,33.5349158 82.6450976,33.8180667 81.0729095,35.3446194 L79.686413,36.748063 C79.401686,37.1789449 79.401686,37.5113394 79.0055442,37.9791539 C78.6094023,38.4346576 78.6094023,38.2869267 78.3122959,38.8778503 C78.114225,39.1979339 77.916154,39.6041939 77.7180831,39.9119666 C77.1362497,40.8352848 76.2449305,41.6970484 76.0468596,42.8912066 C75.7621326,44.1592302 75.7621326,44.2946502 74.9698489,44.996372 C73.5957318,46.079732 73.1995899,47.8032592 73.1995899,49.5637192 C73.1995899,50.3762392 73.2986254,52.7399337 74.1775651,53.2569919 C74.3756361,53.3924119 74.6727425,53.4539664 74.9698489,53.6263191 C78.0151895,55.3252246 78.0151895,54.2664864 79.686413,53.8602264 C81.0729095,53.5278319 81.5557075,52.5306482 82.4470267,51.6319519 C82.942204,51.1764483 83.5240374,50.9056083 83.9201792,50.4131719 C84.3163211,49.9330465 83.8211438,50.265441 84.514392,49.8099374 C85.8885092,48.8373756 87.6587681,45.8827574 89.2309562,45.4641865 C89.7261335,47.840192 88.9338498,48.1848974 90.5184173,49.5144756 C90.9021797,49.8099374 91.397357,50.265441 91.7934989,50.3762392 C91.9915698,50.4624155 92.1896408,50.4377937 92.3877117,50.4377937 C95.9282297,50.4993483 94.4426977,50.9056083 97.1042758,49.5637192 C100.545758,47.8771247 98.3793575,50.0807774 102.117946,46.5229247 C102.613124,46.1289756 102.712159,46.1535974 103.207337,45.8950683 C102.811195,47.3108229 103.009266,47.7540156 103.009266,48.9727956 C103.009266,49.5390974 102.117946,50.5116592 103.504443,52.432161 C104.482418,53.8232937 108.022936,54.3895955 109.793195,54.3895955 C110.585479,54.3895955 111.86056,52.4690937 112.652844,52.0012792 C113.432749,51.5580864 113.927926,50.807121 114.522139,50.2285083 C115.203008,49.5760301 117.864586,46.7198992 118.359763,46.9907392 C118.64449,47.1507811 118.458799,47.9386792 118.359763,48.2710738 C117.666515,49.7360719 117.963621,49.4775428 118.161692,51.1641374 C118.260728,52.2351864 118.260728,53.0723282 119.238703,53.6016973 C119.73388,53.8848482 119.832916,54.0202682 120.229057,54.3280409 C121.405104,55.1651827 122.383079,54.9805191 123.769575,54.9805191 C124.747551,54.9805191 126.035012,54.2172428 127.012987,53.7986719 C127.990962,53.3554791 128.783246,52.8630428 129.959292,52.3706064 C130.949647,51.9397246 133.116048,49.7360719 134.193058,48.8866192 C134.688236,48.5542247 134.5892,48.8004428 134.787271,48.2464519 L135.084378,48.2464519 C135.46814,49.8961137 136.755601,50.807121 138.228754,51.5334646 C140.593225,52.7399337 143.836637,52.8876646 146.300144,51.9766573 C147.080049,51.7058173 147.47619,51.077961 148.268474,50.7455665 C149.44452,50.3023737 150.917673,48.7142665 152.106099,47.9509901 C151.709957,49.7730046 150.620567,51.5088428 149.642591,53.0600173 C150.236804,53.9587137 150.32346,54.0695119 151.313815,54.3895955 C152.390826,54.72199 154.161085,56.1500555 154.161085,53.9587137 C154.161085,52.3706064 154.755297,51.3980446 155.250475,49.9084246 C155.931344,47.9140574 157.515911,46.3875047 158.394851,44.7624647 C158.691957,44.2946502 158.790993,44.0607429 159.088099,43.6298611 C159.583276,42.9035175 160.066074,42.4603248 160.759323,41.9309557 L162.430546,40.2074284 C162.628617,39.9365884 162.826688,39.5426394 163.123794,39.2841103 C163.507557,38.8162957 163.606592,38.9024721 164.299841,38.7424303 L164.200805,40.5644448 C163.903699,42.4972575 163.22283,44.5531793 163.22283,46.485992 C163.309486,48.0125447 162.925723,48.9851065 162.529582,50.3146846 C161.836333,53.0230846 162.232475,53.3554791 164.596947,53.3554791 C165.772993,53.3554791 166.466241,50.8686755 166.862383,49.9453574 L169.412547,46.7445211 C170.20483,45.6119174 171.578947,44.6147338 172.470267,43.4944411 C172.470267,43.4944411 175.317536,40.7121757 175.317536,42.2387284 C175.317536,44.048432 174.723323,45.8458247 174.624288,47.704772 C174.624288,48.3080065 174.723323,47.9386792 174.723323,48.640401 C174.525253,51.3611119 173.943419,50.7455665 176.10982,53.8602264 C176.691653,54.6235028 178.07815,54.4019064 178.858054,54.1556882 C179.551302,53.9340919 179.452267,53.50321 180.628313,53.0600173 C181.915774,52.567581 183.487962,50.7086337 184.465938,49.7730046 L185.159186,49.0097283 C185.555328,48.6157792 186.038126,48.0740992 186.038126,48.9727956 C186.038126,51.1025828 184.664009,50.2408192 185.641984,53.1338828 C185.93909,53.8971591 186.632338,54.6604355 187.226551,55.12825 C187.511278,55.3867791 188.006456,55.6822409 188.402597,55.8792155 L188.99681,56.1131227 C189.479608,56.2239209 189.293917,56.1254336 189.677679,56.2854755 C191.84408,57.0856845 191.064176,57.3811463 193.515303,56.0146355 L195.78074,54.5988809 C196.275917,54.3526628 196.573023,54.3895955 196.956786,54.0325791 L199.91547,50.671701 C200.311612,50.1792646 200.79441,49.2682574 201.487659,49.2682574 C202.663705,49.2682574 202.564669,49.8468701 206.018531,49.8468701 C208.271588,49.8468701 210.735095,48.0125447 212.208248,47.0769156 C211.812106,48.6773338 211.329308,48.9727956 212.010177,51.8043046 C212.406319,53.5647646 213.099567,54.1679991 215.265968,54.45115 C217.036227,54.6850573 217.519025,53.7617391 218.806486,53.3185464 C220.180603,52.838421 221.455685,51.9766573 222.64411,51.1395155 L223.126908,50.7701883 C223.52305,50.5732137 224.117263,50.4993483 225.788486,49.6006519 C227.558745,48.640401 227.855852,46.8060756 229.329004,49.1697701 C230.121288,50.400861 231.198299,51.2010701 232.275309,52.1243882 C232.770487,52.5552701 234.243639,53.6509409 234.837852,53.6509409 C236.509076,53.6509409 238.180299,53.5893864 239.566796,52.7645555 L240.544771,52.1366992 C241.039948,51.7427501 241.522746,51.0287174 242.215995,50.7455665 C242.711172,50.536281 244.976608,50.5116592 247.328701,49.5760301 C248.021949,49.317501 250.386421,47.704772 251.067289,47.1384701 C251.661502,46.621412 252.255715,46.1905302 252.936584,45.7596483 C252.651857,46.9414956 252.738513,47.1507811 253.23369,48.3203174 C254.025974,49.8345592 254.125009,50.0069119 255.499127,50.9302301 C256.29141,51.4719101 256.675173,51.6319519 257.665527,51.9766573 C259.336751,52.567581 261.503152,52.7645555 263.273411,52.296741 C266.318751,51.4965319 264.845599,51.3611119 266.615858,50.7455665 C267.692869,50.3393065 268.386117,48.9727956 269.463128,48.6773338 C269.661198,49.4036774 269.859269,50.0807774 270.05734,50.7701883 C270.255411,51.8043046 271.047695,52.5060264 271.827599,53.2693028 L271.827599,53.3554791 L273.11506,54.3526628 C274.786284,54.9558973 275.170046,53.9340919 275.665224,53.9340919 C276.259436,53.9340919 276.556543,54.2295537 277.336447,54.2295537 L280.295132,53.5893864 C281.570213,53.09695 284.033721,51.6442628 285.209767,50.8686755 C285.80398,50.5116592 286.980026,49.5637192 287.574239,49.4159883 C287.574239,51.0410283 288.354143,51.9397246 289.344498,53.0353955 L289.641604,53.3554791 C292.092732,55.7191736 292.78598,53.9340919 293.479228,53.9340919 C294.457204,53.9340919 294.259133,54.5003937 295.930356,54.0695119 C296.326498,53.9833355 296.326498,53.9956464 296.821675,53.9217809 C297.403509,53.8356046 297.997722,53.6878737 298.492899,53.4047228 L302.726665,51.1395155 C302.924736,50.9671628 303.110428,50.8440537 303.308499,50.7086337 C303.506569,50.536281 303.70464,50.4377937 304.001747,50.265441 C304.496924,49.9453574 304.781651,49.7114501 305.276828,49.3421228 C305.772006,48.9727956 306.267183,48.8373756 306.366219,48.2464519 L306.650946,48.2464519 C307.146123,50.0315337 308.037442,50.3023737 309.411559,51.2626246 C310.587605,52.161321 314.041467,52.8014882 315.712691,52.5060264 C316.39356,52.3952282 316.690666,52.296741 317.383914,52.1366992 C318.758031,51.7919937 318.758031,51.2626246 319.835042,50.7948101 C320.924432,50.3393065 323.090833,48.369561 324.365915,47.5077974 C325.938103,46.4121265 326.136174,44.1346084 323.870737,45.944312 C323.474596,46.2890174 323.189869,46.5229247 322.793727,46.8430083 L321.704337,47.6801501 C321.704337,47.704772 321.605301,47.7170829 321.605301,47.7540156 L319.253209,49.5144756 C318.758031,49.8714919 318.460925,49.8961137 317.780056,50.0807774 C315.910762,50.6963228 314.920407,51.3980446 313.150148,50.5978355 C312.4569,50.265441 312.555935,50.1669537 312.073137,49.6006519 C311.379889,48.7142665 310.686641,48.1110319 310.686641,46.6460338 C310.686641,46.1905302 311.082783,46.1289756 311.478925,45.9566229 C312.357864,45.4888084 313.447254,44.996372 314.128123,44.2577175 C314.722336,43.7160375 315.118478,43.4205757 315.712691,42.8665848 C317.086808,41.5000739 316.294524,42.6203666 317.284879,40.8599066 C317.581985,40.3797812 317.581985,40.6629321 317.866712,40.3305375 L319.45128,37.7821794 C320.726361,35.2830649 322.298549,32.968614 319.736007,30.4448777 C318.658996,29.3368959 318.163819,29.1399213 316.492595,29.1029886 C315.51462,29.0660559 315.118478,29.7062232 314.623301,30.2602141 C314.524265,30.272525 314.524265,30.3463904 314.42523,30.3956341 L312.853042,32.1684049 C312.654971,32.4392449 312.555935,32.5254213 312.357864,32.7962613 C311.776031,33.4856722 311.57796,34.1258394 310.884712,34.7536958 C309.312524,36.341803 309.015417,38.8039848 308.136478,40.8968393 C307.740336,41.7339811 307.6413,41.4631411 307.344194,42.4726357 C307.146123,43.2974666 306.948052,44.2823393 306.56429,45.0456156 C306.267183,45.6857829 306.267183,46.1535974 306.267183,46.9168738 C304.694995,46.9168738 304.781651,47.8771247 303.902711,48.5542247 C302.726665,49.5144756 301.439204,50.1792646 299.966051,50.7701883 L296.920711,51.8043046 C295.534214,52.3213628 292.587909,52.2721192 291.993696,51.7304392 C290.81765,50.5116592 290.81765,49.4652319 290.81765,47.8032592 C290.81765,46.7075883 291.609934,46.0551102 292.290803,45.3287665 C292.290803,45.3164556 292.389838,45.2795229 292.389838,45.2549011 L293.083087,44.5285575 C293.281157,44.4177593 293.182122,44.454692 293.380193,44.3315829 L296.425534,41.4015866 C297.502544,40.2936048 298.393863,39.6657484 299.470874,38.4100357 L302.330523,35.1230231 C303.308499,34.0150413 304.880687,31.2327759 305.970077,29.866265 L306.465254,29.3368959 C306.650946,29.1645432 306.56429,29.2753413 306.650946,29.1029886 C308.235513,27.3179068 307.938407,27.0839996 308.334548,26.2222359 C309.015417,25.0280778 308.817346,25.6436232 309.411559,24.1540032 C309.807701,23.0829542 310.005772,23.4153487 310.302878,21.9995942 L310.686641,17.5430452 C310.686641,17.0382979 308.916382,15.3270816 308.52024,14.9454434 C307.542265,13.8990161 306.849016,13.6651089 305.474899,14.453007 C304.880687,14.7607798 304.496924,14.8100234 303.902711,15.1793507 L301.835346,16.6443488 C301.53824,16.9890543 301.73631,16.9151888 301.241133,17.2475834 C298.889041,18.8356906 300.164122,19.3650597 297.403509,21.6056451 C295.930356,22.7505596 296.72264,22.5043415 296.029392,23.1937524 C295.831321,23.4276596 296.029392,23.0829542 295.732285,23.4892142 C295.534214,23.7477433 295.150452,24.6833723 294.952381,25.0526996 L293.281157,28.0688723 C292.389838,29.2630304 291.894661,31.5405486 291.411863,32.0329849 C291.015721,32.4023122 291.213792,31.9221868 290.916686,32.6608413 C290.619579,33.2271431 290.520544,33.9288649 290.421508,34.5197885 C290.223437,35.2584431 289.926331,35.4923503 289.839675,36.2556267 C289.740639,36.6495758 289.740639,36.883483 289.542569,37.154323 C289.047391,37.8068012 288.84932,37.4497848 288.255107,39.4441521 C288.057037,40.3305375 288.156072,40.3428484 287.574239,41.0938139 C287.178097,41.6724266 287.277132,42.1894848 287.277132,43.1251138 C287.277132,46.6583447 287.178097,45.0209938 286.88099,47.3723774 C286.781955,48.1479647 286.484848,48.3449392 285.903015,48.7388883 C283.934685,50.0438446 283.439508,50.2408192 281.273107,51.1395155 C280.394167,51.4719101 278.326802,52.1982537 277.435483,52.1982537 C276.655578,52.1982537 276.358472,52.1243882 275.764259,52.0628337 C274.984355,51.9766573 274.786284,52.2228755 274.291107,51.8043046 C273.597858,51.2256919 273.11506,50.3146846 273.016025,49.4036774 C272.817954,46.5475465 273.11506,46.8060756 275.170046,44.6516665 L280.678894,39.5057066 C281.570213,38.6808757 285.110731,34.4828558 285.605909,33.5841595 C286.781955,31.5036159 289.344498,28.782905 290.124402,27.4163941 C290.520544,26.887025 290.322473,26.6900505 290.619579,26.1114378 C290.916686,25.5820687 291.114757,25.6559341 291.312828,24.9295905 C291.894661,23.4522814 292.092732,23.6615669 292.389838,22.4674087 C292.686945,20.9039233 292.885016,19.2296397 292.885016,17.5430452 C292.885016,17.0506088 291.312828,15.4748125 290.916686,15.0931743 C290.124402,14.2560325 289.344498,13.5543107 287.97038,14.2806543 C286.385813,15.1177961 286.88099,14.6622925 285.110731,15.942627 C284.417483,16.4227525 284.417483,16.1888452 283.83565,16.9028779 C283.043366,17.838507 282.548189,17.4445579 281.669249,19.2050179 C280.976001,20.399176 280.579859,20.805436 279.502848,21.6671996 C278.425837,22.5905178 278.908635,22.5535851 278.128731,23.3291723 C278.029695,23.3661051 277.93066,23.3661051 277.534518,24.2155578 L276.457507,26.480765 C275.566188,28.2166032 275.269082,28.1796705 274.390142,30.1740377 C274.291107,30.6295413 273.994,31.4297504 273.795929,31.7744558 C273.498823,32.426934 273.201716,32.020674 272.916989,33.0671013 C272.718919,33.8303776 272.02567,36.8219285 271.530493,37.3512976 C270.94866,37.9052885 271.047695,38.0530194 270.750589,38.8162957 C270.552518,39.3702866 270.453482,40.1458739 270.255411,40.6259993 C269.859269,41.1430575 269.958305,40.7121757 269.661198,41.2661666 C268.98033,42.5218793 269.958305,43.8883902 269.277436,46.3751938 C269.079365,47.0769156 268.782259,47.2246465 268.287081,47.7417047 L266.318751,49.2067028 C265.724539,49.7360719 265.637883,49.7114501 264.746563,49.9822901 C262.382092,50.7455665 260.611833,51.8289264 258.742538,49.7360719 C257.962634,48.8373756 257.269386,47.9140574 257.269386,46.6460338 C257.269386,46.1782193 257.665527,46.1535974 258.061669,45.944312 C259.831928,45.0456156 260.215691,44.6639775 261.602187,43.4698193 C261.701223,43.4575084 261.701223,43.4328866 261.701223,43.4205757 L263.07534,42.164863 C263.669553,41.6724266 263.95428,41.3400321 263.95428,40.5028903 C264.845599,40.4290248 264.746563,39.7765466 265.142705,39.0994466 C267.210071,35.947854 269.376471,32.6362195 265.637883,29.6323577 C264.944634,29.1399213 262.976304,28.9675686 262.283056,29.3122741 C261.503152,29.7062232 261.701223,29.730845 261.206045,30.2971468 C260.809904,30.666474 260.512797,30.9619359 260.116655,31.3066413 L258.346396,33.6580249 C257.665527,35.0122249 257.071315,34.864494 256.29141,36.6741976 C255.697198,37.8683558 255.400091,39.1486903 254.904914,40.4413357 C254.521151,41.5616284 253.827903,42.164863 253.827903,43.4205757 L252.738513,43.7160375 C252.15668,44.0853647 251.562467,44.2330956 251.067289,44.7624647 C249.495101,46.2520847 249.09896,46.5598574 247.427736,47.5077974 C247.229665,47.6185956 246.944938,47.7170829 246.746867,47.8032592 C245.075644,48.4680483 245.459406,48.9727956 243.206349,48.9727956 C243.206349,48.2218301 243.206349,48.369561 243.392041,47.8155701 C243.491076,47.421621 243.491076,46.9538065 243.590112,46.5598574 C243.689147,46.1782193 244.778537,44.9471284 244.778537,44.8855738 C244.778537,44.3315829 244.580466,44.1961629 244.580466,43.7529702 C244.679502,43.5313738 244.976608,43.0881811 245.075644,42.7680975 C245.459406,41.623183 245.261335,40.1089412 245.657477,38.8655394 C245.855548,38.3484812 246.053619,38.2130612 246.152654,37.7083139 C246.152654,37.2404994 246.053619,36.748063 246.152654,36.2925594 C246.350725,35.2953758 246.548796,35.812434 246.548796,34.1997049 C246.548796,33.2640758 246.25169,33.0917231 246.25169,32.1684049 C246.25169,31.4913049 246.746867,31.3312631 246.746867,30.8388268 C246.746867,30.2355922 246.25169,30.1986595 245.954583,29.8416432 C244.976608,28.4751323 246.152654,28.8075268 243.887218,27.5148814 C243.008278,27.022445 242.513101,27.1209323 241.522746,27.4163941 C240.841877,27.6133686 240.841877,28.0073177 240.247665,28.3520232 C240.742842,30.2971468 239.170654,30.7649613 238.37837,32.020674 C238.180299,32.2053377 238.081264,32.5007995 237.982228,32.6854631 C237.697501,33.104034 237.400395,33.1286558 236.905218,33.6826467 C236.608111,34.1012176 236.41004,34.7536958 236.211969,34.9876031 C235.729171,35.4554176 235.630136,34.9876031 234.936888,35.7755012 C234.540746,36.2433158 234.44171,36.4402903 233.958912,36.883483 C233.760841,37.1050794 233.661806,37.1420121 233.463735,37.3512976 C233.166629,37.6098267 233.166629,37.6467594 232.869522,37.8683558 C232.572416,38.1761285 232.770487,37.9791539 232.374345,38.3854139 C232.275309,38.5331448 232.374345,38.508523 232.275309,38.643943 C231.891547,39.0748248 231.495405,39.8011684 231.099263,40.1704957 C230.220324,41.0322593 228.536721,40.2936048 227.657781,40.8352848 C227.558745,40.9337721 226.766462,41.6724266 226.58077,41.8324684 C225.689451,42.8912066 227.063568,44.8240193 227.063568,44.8486411 C227.360674,45.2918338 227.360674,45.8827574 227.657781,46.350572 C225.689451,47.3477556 226.382699,47.1754029 225.194274,48.2833847 C224.315334,49.0343501 223.225944,49.317501 222.347004,50.0069119 C221.752791,50.4747265 221.752791,50.5116592 220.972887,50.807121 C220.279638,51.077961 220.081568,51.4103555 219.388319,51.5950192 L218.608415,51.8658592 C217.519025,52.4690937 217.519025,52.6291355 215.847801,52.6291355 C214.077542,52.6291355 214.770791,50.4747265 214.968862,49.3667447 L216.045872,46.2520847 C216.54105,45.3780102 216.739121,44.0976756 217.419989,43.3836429 C217.915167,42.8912066 218.014202,42.7680975 218.50938,42.2017957 C219.388319,40.9953266 219.883497,41.2292339 220.972887,40.5028903 C220.972887,39.9365884 220.873851,39.9365884 220.67578,39.5672612 C220.378674,39.2717994 220.279638,39.1117575 219.982532,38.8409176 C219.784461,38.5700776 218.806486,37.7206248 218.410344,37.7206248 C216.342979,37.7206248 217.036227,38.0160867 216.243943,39.1486903 C216.045872,39.5057066 215.847801,39.7396139 215.64973,40.1089412 C215.550695,40.2443612 215.451659,40.4413357 215.365003,40.5644448 C215.265968,40.8599066 215.265968,40.8722175 215.067897,41.1676793 C214.671755,41.8324684 213.978507,42.2633502 213.6814,43.0266266 C213.582365,43.4944411 213.495709,43.9007011 213.396674,44.2946502 L213.000532,44.7132211 C213.000532,44.7132211 212.802461,44.8486411 212.802461,44.860952 C212.010177,45.3903211 211.911141,45.8827574 211.032202,46.3751938 C211.032202,46.3875047 210.834131,46.5475465 210.735095,46.5475465 C208.766765,47.840192 209.559049,47.1754029 208.66773,47.6555283 C207.491684,48.3449392 208.66773,48.1479647 206.402294,48.6034683 C205.919496,48.7019556 202.465634,48.6527119 202.465634,47.6555283 C202.465634,46.8799411 203.455988,46.8060756 203.654059,45.1933465 C203.753095,44.5285575 204.248272,42.9035175 204.532999,42.3741484 L205.82046,38.2499939 C206.402294,35.7755012 205.82046,32.7716395 205.028177,30.5310541 C204.632035,29.6323577 204.532999,28.9798795 203.753095,28.241225 L202.564669,27.3055959 C201.190552,26.5792523 199.519329,26.887025 197.947141,26.887025 C196.85775,26.887025 196.077846,27.1824868 195.285562,27.5025705 C194.604694,27.7857214 193.911445,28.241225 193.032506,28.4135777 C191.745044,28.6844177 191.745044,28.5736195 190.668034,29.3122741 C188.006456,31.208154 189.479608,32.1068504 189.677679,32.8947486 C188.798739,33.5226049 188.501633,33.2517649 188.798739,34.8521831 C188.798739,35.3199976 188.798739,35.7878121 188.897775,36.1817612 C189.095846,36.612643 189.293917,36.9573485 189.293917,37.5728939 C189.293917,37.9545321 188.99681,38.0037757 188.699704,38.508523 C188.303562,39.4318412 188.303562,40.268983 187.610314,40.9953266 C187.127516,41.4262084 187.325587,41.9678884 186.929445,42.558812 C185.93909,43.9991884 186.434267,44.9594393 186.038126,46.0427993 C185.456292,47.4462429 182.992785,49.3421228 181.717703,50.4993483 C181.024455,51.077961 180.529278,51.4595992 179.452267,51.4595992 C178.362877,51.4595992 179.056125,50.9671628 178.07815,50.7332555 C178.177185,49.4036774 178.263841,50.2285083 177.979114,48.8004428 C177.781044,47.8771247 177.979114,47.8894356 178.263841,47.0892265 C178.659983,45.9935556 178.95709,44.5654902 179.155161,43.1620466 C179.452267,41.2046121 179.650338,40.7614193 178.461912,39.5795721 C177.781044,38.914783 176.10982,37.9052885 175.317536,38.7054976 C173.547277,40.2320503 174.723323,39.5057066 172.655958,40.7983521 C172.17316,41.0938139 171.876054,41.5246957 171.479912,41.9063339 C170.700008,42.5218793 170.700008,42.287972 170.303866,43.235912 C169.808688,44.2946502 168.731678,45.0456156 167.939394,45.8458247 L167.741323,46.079732 C166.961419,46.892252 165.872029,49.2436356 165.872029,47.2123356 C165.872029,46.4490592 166.466241,46.079732 166.763348,45.5872956 C167.14711,44.9840611 167.14711,44.454692 167.444217,43.7529702 C168.038429,42.2387284 167.939394,43.3590211 168.830713,40.0350757 C169.016405,39.1733121 168.917369,38.7054976 169.016405,37.7452467 C169.214476,36.4156685 167.939394,36.0094085 166.565277,35.2830649 C166.070099,35.0122249 165.475887,34.3597467 164.894053,34.6552085 C164.299841,34.9137376 164.497911,35.2584431 163.705628,35.947854 L161.737298,37.9791539 C161.539227,38.2130612 161.440191,38.508523 161.2545,38.779363 C160.660287,39.7149921 160.561252,39.3333539 159.868003,40.0104539 C158.989064,40.8968393 158.19678,42.0417539 157.713982,43.1374248 C157.31784,43.9991884 156.822663,44.3808266 156.426521,45.131792 C156.327485,45.4149429 156.525556,45.2918338 156.129414,45.5872956 C155.931344,45.7842702 155.646617,45.9812447 155.34951,46.0551102 C155.34951,45.0579265 155.448546,44.8240193 155.844687,44.1592302 C155.931344,43.8637684 155.931344,43.6667938 156.129414,43.3343993 C156.327485,43.0266266 156.525556,42.7557866 156.624592,42.558812 C156.921698,42.1279302 157.020734,41.2907884 157.218805,40.7367975 C157.899673,39.050203 158.394851,38.3484812 159.28617,36.8465503 C159.484241,36.612643 159.669932,36.3171812 159.768968,36.0463412 C160.264145,35.0245358 159.669932,35.2461322 160.660287,34.3843685 C161.155464,33.9288649 161.638262,33.7934449 161.836333,33.0301686 C161.353535,32.3900013 159.484241,31.208154 158.592922,31.6021031 C158.19678,31.7744558 157.614946,32.4638667 157.31784,32.7962613 C156.822663,33.3625631 156.624592,33.5595376 156.426521,34.3966794 C155.844687,36.2925594 155.052404,36.883483 154.854333,37.8191121 C154.755297,38.3854139 154.656262,39.3825975 154.557226,39.998143 C154.359155,40.7121757 153.975393,40.7983521 153.876358,41.8078466 C153.777322,42.4357029 153.777322,43.4698193 153.579251,43.9868775 C153.38118,44.3808266 152.985038,45.3287665 152.687932,45.6242284 C152.007063,46.3259502 149.44452,48.0740992 148.454166,48.8743083 C147.971368,49.2805683 147.575226,49.6498956 146.981013,49.8468701 C144.331814,50.6347683 142.363484,52.025901 140.49419,49.6745174 C140.197084,49.2805683 139.899977,49.0835938 139.602871,48.6773338 C139.206729,48.1356538 139.021037,47.3477556 139.021037,46.6460338 C139.021037,46.1782193 139.4048,46.1535974 139.800942,45.944312 C140.197084,45.7227156 140.296119,45.6242284 140.692261,45.4149429 C142.066378,44.7501538 143.044353,43.8883902 144.034708,42.8665848 C144.628921,42.2633502 145.111719,42.1894848 145.507861,41.3646539 C146.102073,40.1458739 146.102073,40.5644448 146.584871,39.5672612 C147.27812,38.3115485 148.268474,37.2774321 148.751272,35.9109212 C148.850308,35.6523921 148.949343,35.5539049 148.949343,35.3569303 C149.147414,35.0614685 149.147414,35.0860903 149.246449,34.8521831 C149.840662,33.2517649 149.048379,31.3928177 148.070403,30.3710122 C147.773297,30.137105 147.674261,30.001685 147.47619,29.7800886 C146.881978,29.2384086 145.408825,29.0045013 144.628921,29.1029886 C143.935673,29.1768541 143.440495,29.6077359 143.044353,30.0755504 L143.044353,30.1617268 L142.660591,30.5310541 C142.46252,30.7403395 142.264449,30.8634486 142.066378,31.0973559 C141.571201,31.6267249 141.472165,31.8975649 141.076023,32.4023122 C139.899977,33.6949576 140.098048,33.9288649 139.021037,34.9629813 C137.832612,36.1202067 137.43647,38.2746157 136.854637,39.8134794 C136.656566,40.3059157 136.458495,41.0076375 136.260424,41.3769648 L135.567176,43.0389375 C135.084378,44.7993975 134.5892,45.1194811 134.5892,46.7814538 C133.895952,46.8430083 133.598846,47.2123356 133.116048,47.6185956 L131.246753,49.317501 C130.949647,49.7730046 131.147718,49.5390974 130.65254,49.8961137 L129.377459,50.9671628 C128.684211,51.7673719 128.684211,51.2380028 127.112022,52.1982537 L124.747551,53.3308573 C124.252373,53.4539664 123.076327,53.6509409 122.58115,53.6509409 C121.306068,51.2626246 121.207033,51.3980446 121.207033,48.5419138 L121.801246,46.1905302 C121.999316,45.4149429 122.098352,44.4177593 122.098352,43.5683066 C122.197387,42.9527611 122.197387,42.6572993 122.58115,42.2633502 C123.175363,41.5370066 123.67054,40.5767557 124.351409,39.8996557 L124.945622,39.0994466 C125.440799,38.4100357 125.836941,38.1761285 126.319739,37.5113394 C127.310093,36.0463412 128.684211,34.7783176 129.57553,33.2517649 C130.553505,31.4051286 132.026658,29.8047104 133.017012,27.9088305 C133.314119,27.3548396 133.314119,27.4779486 133.598846,27.0716887 C133.895952,26.5915632 133.796917,26.3207232 134.193058,25.8775305 L134.5892,25.1511869 C134.787271,24.8187923 134.886307,24.461776 135.084378,24.1170705 C135.567176,22.9229124 136.55753,21.7041324 137.151743,20.3253106 C137.43647,19.4019924 137.535505,17.7523306 137.535505,16.6566597 C137.535505,15.0562416 136.854637,14.9208216 136.161388,14.059058 C135.666211,13.3204034 133.895952,12.3355307 132.917977,12.9510762 C131.927622,13.5666216 131.444824,14.6622925 130.65254,15.5240561 C130.058328,16.1888452 130.157363,15.7456525 130.058328,16.8043906 C129.959292,17.9000615 129.278423,18.4417415 128.585175,19.1803961 C127.990962,19.8944288 128.585175,20.2268233 127.211058,21.7410651 C125.836941,23.2922396 126.035012,24.6956832 125.143693,25.3850941 C124.648515,25.7790432 124.54948,25.8529087 124.450444,26.5423196 C124.165717,27.5148814 124.165717,27.1209323 123.769575,27.834965 C123.472469,28.4505104 123.67054,29.866265 123.175363,31.0111795 L122.383079,32.3038249 Z" id="Shape"></path>
                <path d="M38.4752791,49.4036774 C38.3762436,48.9851065 38.3762436,49.0712828 38.4752791,48.6527119 C38.6609706,48.1848974 38.6609706,48.1110319 38.958077,47.9140574 C39.4532543,48.6034683 39.0571125,49.2313247 38.4752791,49.4036774 Z M2.36447179,36.5510885 C3.15675553,36.5510885 3.83762436,35.9601649 4.43183717,35.6523921 C5.02604997,35.2830649 6.00402521,35.3199976 6.69727349,35.0245358 C8.26946153,34.4213013 9.54454318,33.3010086 10.7205894,32.156094 C11.5128731,31.4051286 12.5032278,30.5679868 13.0850611,29.7062232 L15.5485684,26.1729923 C15.9447103,25.5574469 16.5265436,25.2866069 16.9226855,24.5602632 C17.7149692,23.0583324 17.5168983,22.5043415 18.6929445,20.5099742 C19.3861928,19.3650597 21.0574163,14.6622925 20.4632035,13.5912434 C20.2651325,13.2219161 19.5842637,12.8033452 19.1881218,12.5940598 C18.7919799,12.3847743 18.2968026,11.9538925 17.8140047,11.7692289 C15.9447103,11.1906162 17.6159338,15.2285943 17.7149692,15.7210307 C17.8140047,16.2750216 17.8140047,17.0382979 17.8140047,17.6169106 C17.9130402,19.0080433 17.1207564,18.1339688 16.7246146,20.5961506 C16.6255791,21.2240069 16.4275082,21.5071578 16.2418167,22.1227033 C15.9447103,23.0583324 15.5485684,23.3291723 15.0533911,23.9939614 C14.1744513,25.0773214 14.4591782,24.8803469 13.9763803,26.209925 C13.5802385,27.4533268 12.5898838,28.2166032 11.909015,29.2753413 C11.8099795,29.595425 11.710944,29.730845 11.5128731,30.001685 C10.7205894,30.9988686 10.0397205,31.1958431 9.14840131,31.8606322 C8.6656034,32.1684049 8.46753247,32.4392449 7.97235513,32.8208831 C6.30113162,34.0889067 7.57621326,33.7688231 4.82797904,33.7688231 C3.05772006,33.7688231 5.21174147,25.5451359 5.80595428,24.1663142 C6.00402521,23.6000123 6.20209615,23.4153487 6.40016708,22.7505596 C6.59823802,22.024216 6.59823802,21.7903087 6.89534442,21.1378306 L11.1167312,13.2219161 L12.5898838,11.5968762 C13.5802385,10.5996926 12.9860257,10.7597344 13.7783094,9.89797075 C13.9763803,9.70099621 14.0754158,9.52864348 14.2734867,9.34397985 C16.2418167,7.38654533 16.3284727,6.77099989 19.0890864,5.1213381 C19.3861928,4.94898537 19.4852282,4.96129628 19.7823346,4.72738901 L21.7506645,3.63171812 C23.8056505,2.86844177 24.2017924,3.22545813 25.0931116,4.39499447 C25.2911825,4.65352356 25.4892534,4.71507811 25.5759095,4.94898537 C26.2691577,6.00772354 25.6749449,7.2018817 25.6749449,8.33448532 C25.7739804,9.44246712 25.8730159,8.83923258 25.4892534,9.86103802 C24.8950406,11.8554053 26.8633705,12.8525889 25.4892534,14.1452343 C25.0931116,14.5145616 25.0931116,14.2314107 24.8950406,14.7854016 C24.5979342,15.4255688 24.8950406,15.1547288 24.3998633,15.6471652 C23.1247817,16.8782561 24.3998633,17.0136761 24.3998633,18.2693888 C24.3998633,18.651027 24.3008278,18.5032961 24.1027569,18.7495142 L23.3228526,20.5099742 C22.4315334,22.9352233 23.4218881,21.8395524 21.3545227,25.4466487 C20.8593453,26.2468578 20.2651325,26.7146723 19.9680261,27.6133686 L19.4852282,28.7090395 C19.0890864,29.6323577 18.6929445,30.1986595 18.3958381,31.1958431 L17.9130402,32.4392449 C17.3188274,33.3502522 17.2197919,34.2858813 16.6255791,35.0614685 L16.0437457,35.8493667 C15.8456748,36.2925594 15.8456748,36.748063 15.6476039,37.2404994 C15.1524265,38.8162957 14.1744513,39.1733121 13.6792739,40.3428484 C13.481203,40.7121757 13.3821675,41.1676793 13.1840966,41.623183 C12.8869902,42.4603248 12.5032278,43.2605338 12.2061214,44.0238102 C12.2061214,44.2207847 12.1070859,44.4916247 12.0080504,44.6639775 C11.5128731,45.5872956 11.4138376,45.4888084 10.9186603,46.9168738 C10.3368269,48.4434265 10.138756,48.0371665 9.84164958,50.2408192 C9.74261411,50.9671628 9.74261411,50.9671628 9.34647224,51.5580864 C8.76463887,52.6660682 8.26946153,55.9777027 8.26946153,57.4550118 C8.26946153,59.4124463 12.2061214,59.178539 13.2831321,58.772279 C14.4591782,58.3044645 14.4591782,57.1103063 15.0533911,56.0269464 C15.7466393,54.6973682 15.9447103,53.5893864 16.4275082,52.703001 C16.7246146,52.0382119 17.1207564,51.3980446 17.3188274,50.5732137 C17.5168983,49.9699792 17.5168983,49.5021647 18.0120756,48.9851065 C18.2968026,48.5542247 18.0120756,48.8743083 18.3958381,48.5542247 L18.8910154,48.0371665 C19.8813701,46.892252 19.6832992,46.2274629 20.364168,45.1194811 C20.7603099,44.5654902 21.0574163,44.2330956 21.2554872,43.6667938 C21.4535581,43.0389375 21.3545227,43.0389375 21.7506645,42.4972575 L23.5209235,39.7396139 C23.706615,39.4441521 23.619959,39.5795721 23.8056505,39.2841103 C23.904686,38.9024721 23.8056505,39.1117575 24.0037214,38.6808757 L25.192147,36.612643 C25.390218,36.0586521 25.4892534,36.0586521 25.7739804,35.6893249 C26.3681932,34.6921413 26.4672287,33.5841595 28.1384522,31.9221868 C28.4355586,31.5405486 29.9087112,29.3492068 30.0077466,28.9429468 C30.6019594,28.9060141 30.6019594,28.6844177 30.8990658,28.2535359 L33.0530873,25.1142541 C33.845371,23.8585414 34.3405483,23.2922396 35.3185236,22.2581233 L38.0791372,19.9067397 C39.6513253,18.4663633 39.2551834,19.0449761 40.443609,17.1737179 C41.2235133,15.9918706 41.7186907,15.8810725 42.8947368,15.1547288 C43.2908787,14.8838888 42.7957014,14.9577543 43.4889496,14.9208216 C44.3678894,16.213467 44.0831625,20.0790924 43.6870206,21.6548887 C43.2908787,22.8244251 42.9937723,22.7505596 42.5976304,23.5507687 C42.3995595,23.9939614 42.213868,25.2496741 42.0157971,25.8529087 C41.7186907,26.887025 41.8177261,27.1824868 41.0254424,27.9826959 C40.3445736,28.8444595 40.1465026,30.0386177 39.8493962,31.1589104 C39.7503608,31.8236995 39.6513253,31.7005904 39.5522898,32.426934 C39.3542189,33.2517649 39.2551834,34.1012176 39.0571125,34.9260485 C38.958077,35.6523921 38.958077,35.4554176 38.6609706,35.9232321 C37.9801018,36.8219285 38.1781727,38.6193212 37.7820308,39.6165048 C37.2868535,40.8599066 37.385889,41.4262084 36.8907116,41.8570902 C36.2098428,42.5218793 36.0117719,42.287972 35.61563,43.4698193 C35.3185236,44.454692 35.2194881,44.860952 34.6376547,45.5626738 C33.6473001,46.892252 33.6473001,49.1082156 32.9664312,50.5978355 C32.6693248,51.1395155 32.9664312,50.5978355 32.6693248,51.0287174 C32.273183,51.5703973 32.3722184,52.0012792 32.075112,52.6660682 L31.7780056,53.7863609 C31.3818638,54.6235028 31.4808992,53.7986719 31.4808992,55.5468209 C31.4808992,56.6917354 34.2415129,56.5563154 35.0214172,56.5809373 C35.7146655,56.5809373 35.8137009,56.7163573 36.4079137,56.7163573 C36.8907116,56.1131227 37.5839599,55.4606446 37.8810663,54.7958555 L39.8493962,51.0410283 C40.8273715,49.6745174 40.9264069,49.046661 42.498595,46.9414956 C43.0928078,46.0551102 43.3899142,44.860952 44.0831625,44.048432 C44.4669249,43.6175502 44.7640313,43.0389375 44.9621022,42.5341902 L46.7323612,39.7642357 C47.0294676,39.3456648 47.2275385,38.8655394 47.5246449,38.3854139 C48.1064783,37.5113394 50.2728792,35.0122249 50.5699856,34.3966794 C51.4613048,32.6854631 52.43928,32.2053377 53.5162907,30.6049195 C54.0114681,30.0139959 54.4076099,30.2109704 54.8037518,29.5092486 L55.781727,28.2781577 C56.7720817,27.4533268 55.4846206,27.5887468 56.6730463,26.887025 C58.0471634,26.1483705 58.5423407,24.9788341 59.6193514,24.055516 C59.8174223,23.8585414 59.7183869,23.9939614 59.9164578,23.7600542 C60.1145287,23.5507687 60.0154933,23.6246342 60.2135642,23.4522814 C61.2905749,22.1350142 62.1818941,21.0024106 63.3579403,19.7713197 C64.6454014,18.515607 65.6233766,17.0752306 66.8984583,15.807207 L67.1955647,15.5117452 C67.4926711,15.2285943 67.4926711,15.2532161 67.8888129,15.0562416 C67.8888129,16.078047 67.4926711,16.4104416 67.4926711,17.2722052 C67.2946001,19.0695979 65.920483,19.7466979 64.2492595,22.3689215 C62.1818941,25.4589596 62.862763,24.5233305 61.4886459,27.8718977 C61.1915395,28.6105523 61.092504,29.2384086 60.7087416,29.866265 C60.0154933,30.9988686 59.322245,32.1930268 59.037518,33.5964704 C58.7404116,35.4554176 57.9481279,37.1420121 57.551986,38.9763376 L56.9701527,40.9953266 C56.5740108,42.1033084 55.979798,42.8542739 55.5836561,43.9499447 C55.1998937,45.2918338 55.1998937,46.8183865 55.5836561,48.2095192 C55.781727,48.9727956 55.8807625,48.8496865 56.1778689,49.4775428 C56.6730463,50.1792646 57.0691881,51.1641374 57.8490924,51.5580864 C58.2452343,51.7919937 58.7404116,51.6935064 59.322245,51.7919937 C60.4116351,51.9766573 60.2135642,51.9027919 61.2905749,51.4349773 C61.4886459,51.3364901 61.6867168,51.2749355 61.9838232,51.1025828 C63.4569758,50.2038865 65.0291638,49.2067028 66.3166249,47.9879229 C66.7003873,47.6432174 66.8984583,47.3846883 67.2946001,47.0399829 C68.0868839,46.2520847 68.9658237,45.6488502 69.5600365,44.7501538 C69.7581074,44.4300702 69.7581074,44.454692 69.9561783,44.1592302 C70.4389762,43.5929284 70.6370472,43.2605338 70.6370472,42.5341902 C69.461001,42.5341902 68.9658237,41.8570902 68.5696818,42.300283 C68.1859193,42.6696102 68.4706463,43.5190629 68.0868839,44.183852 C67.4926711,45.0825484 66.6013519,45.8581356 65.7224121,46.5229247 C65.1281993,46.9907392 64.6454014,47.421621 64.348295,48.0864101 C64.150224,48.5419138 64.4473304,48.1356538 64.150224,48.504981 C64.0511886,48.7388883 63.7540822,48.8496865 63.5560112,49.0712828 C62.9617984,49.7114501 62.862763,49.6129628 62.0828587,49.8961137 C61.5876813,50.0684665 61.2905749,50.8686755 60.7087416,50.8686755 C58.4433052,50.8686755 59.8174223,45.2179684 60.2135642,44.0976756 L61.8847877,39.9365884 C62.1818941,39.4441521 62.1818941,38.9024721 62.3799651,38.3361703 C62.578036,37.8191121 62.7761069,37.5359612 62.9617984,37.018903 C63.1598694,36.4526012 63.2589048,36.1571394 63.5560112,35.6154594 C64.4473304,33.9534867 64.5463659,33.4979831 65.5243412,31.8606322 C66.3166249,30.6418522 66.7003873,28.9429468 67.4926711,27.7857214 C68.3716108,26.2591687 67.8888129,27.3425286 68.9658237,25.2866069 C69.3619655,24.4125323 69.8571429,23.7969869 70.1542493,22.6890051 C70.1542493,22.6520724 70.2409053,22.0611487 70.2409053,21.9626615 C70.4389762,21.4702251 70.4389762,21.7656869 70.7360826,21.3594269 C71.033189,20.9039233 70.9341536,20.3622433 71.23126,19.8328742 C71.5283664,19.2050179 71.7264373,19.463547 72.0235437,18.6756488 C72.6053771,16.8536343 72.7044125,18.2816997 73.2986254,16.0903579 C73.5957318,15.3147707 73.6947672,15.4255688 74.0785297,14.8100234 C74.3756361,14.3545198 74.4746715,13.9851925 74.6727425,13.4927561 L76.9381788,9.76255075 C77.7180831,8.64225804 78.6094023,7.48503261 79.5873775,6.54940353 C80.5777322,5.55221991 80.9738741,5.10902719 79.7854485,3.34856722 C78.8074732,1.78508179 76.9381788,2.58529087 75.8487886,3.49629813 L73.7938027,4.81356538 C73.4966963,4.9859181 73.1995899,5.31831264 72.9024835,5.55221991 C71.9245082,6.29087444 70.1542493,7.78049442 69.461001,8.74074531 C68.5696818,10.0703235 68.8667882,8.76536713 67.4926711,11.6953634 C67.0965292,12.4586398 66.5023164,12.8895216 65.920483,13.4312016 C65.0291638,14.2560325 65.4253057,14.9577543 63.5560112,16.0164925 C62.578036,16.619727 61.9838232,17.7523306 61.1915395,18.6017833 C58.8394471,20.8916124 60.5106706,20.128336 59.037518,21.3224942 C58.6413762,21.6918215 58.6413762,21.8641742 58.2452343,22.2581233 C57.8490924,22.5905178 57.6510215,22.5905178 57.3539151,22.9967778 C56.8711172,23.5630796 56.4749753,24.2278687 55.8807625,24.7203051 C55.0018227,25.409716 54.9027873,25.9267741 54.209539,26.4561432 C53.2315638,27.1824868 52.9344574,28.7705941 51.4613048,28.8075268 C51.4613048,29.8416432 50.4709501,30.1001722 50.1738437,31.2327759 C49.7777018,32.7716395 49.7777018,32.4884886 48.8987621,33.6949576 C48.5026202,34.1627722 48.3045493,34.2612594 48.0074428,34.729074 C47.7227159,35.1968885 47.4256095,35.4184849 47.1285031,35.812434 C46.8313967,36.2433158 46.7323612,36.5264667 46.4352548,37.0065921 C46.1381484,37.6467594 46.0391129,37.5482721 45.556315,38.0530194 C45.3582441,38.3854139 45.1601732,38.7178085 44.8630668,39.1117575 C44.5659604,39.5426394 44.3678894,39.7642357 44.1698185,40.268983 C43.5879851,41.5246957 43.2908787,43.2605338 42.1148325,43.9868775 C41.4215843,44.4300702 41.8177261,44.2577175 41.4215843,45.1564138 C41.1244779,45.7965811 41.0254424,45.7227156 40.5302651,46.1535974 C40.1465026,46.4244374 40.5302651,46.1166647 40.3445736,46.3751938 C39.8493962,46.7814538 39.9484317,46.7814538 39.2551834,46.7814538 C40.9264069,43.6298611 41.4215843,39.5795721 42.3995595,37.2158776 C42.6966659,36.5510885 43.0928078,36.1940721 43.3899142,35.5539049 C43.6870206,34.9260485 43.786056,34.2243267 44.0831625,33.6210922 C44.3678894,33.0301686 44.6649958,32.4638667 44.9621022,31.8729431 L45.8534214,29.3368959 C46.8313967,26.9485796 48.1064783,22.7998033 48.7997266,20.3006888 C49.096833,19.1680851 49.4929749,17.1121634 49.4929749,15.7825852 L48.5026202,14.1575452 C47.8217513,13.2219161 45.556315,11.756918 44.268854,11.4737671 C43.786056,11.3629689 43.5879851,11.2644816 43.0928078,11.2644816 C42.7957014,12.2247325 42.213868,13.8620834 41.3225488,14.3791416 C40.8273715,14.6869143 40.0474672,14.6622925 39.6513253,15.0439307 C39.3542189,15.3270816 39.6513253,15.2285943 39.0571125,15.6225434 C38.2772082,16.1765343 37.5839599,16.3858197 37.0887826,17.2722052 C36.4079137,18.3678761 35.2194881,18.5032961 34.6376547,19.6974542 C33.6473001,21.7041324 33.2511582,21.3963597 32.075112,23.1568196 C31.8770411,23.5507687 31.9760766,23.6861887 31.6789702,24.055516 C31.4808992,24.3509778 30.8990658,25.0280778 30.6019594,25.3235396 C30.1067821,25.9144632 30.2058176,26.2837905 29.7106402,26.9732014 C29.5125693,27.3055959 29.4135338,27.3425286 29.2278423,27.6379905 L27.7423103,29.7800886 C27.5442394,30.1001722 27.4452039,30.1986595 27.2595124,30.5064322 C26.3681932,32.0329849 24.3998633,34.3966794 23.8056505,35.677014 C23.1247817,37.2528103 22.8276752,37.3389867 22.0353915,38.7054976 C21.2554872,39.9365884 20.364168,42.8912066 19.2871573,43.9253229 C17.4178628,45.8950683 18.3958381,46.6460338 16.7246146,48.6157792 C15.9447103,49.4652319 15.8456748,50.536281 15.251462,51.3734228 L14.6572492,52.567581 C14.5582137,52.9245973 14.6572492,52.5922028 14.4591782,52.9984628 L13.8773449,54.45115 C13.7783094,54.58657 13.7783094,54.5988809 13.7783094,54.7343009 C13.2831321,55.6576191 12.6889193,56.3593409 12.0080504,57.0733736 L11.5128731,57.4550118 C11.5128731,55.3867791 12.5032278,53.6878737 13.0850611,51.7919937 C13.481203,50.7455665 13.9763803,49.9084246 14.4591782,48.911241 L14.9543556,48.3080065 L14.9543556,48.2218301 L15.7466393,46.8060756 C16.0437457,46.3875047 16.4275082,45.8950683 16.6255791,45.4272538 C16.82365,44.5654902 17.021721,43.9622557 17.4178628,43.1866684 C17.5168983,42.9281393 17.7149692,42.7680975 17.8140047,42.4357029 C18.4948735,41.2046121 18.7919799,40.1704957 19.0890864,39.4810848 C19.2871573,39.1733121 19.2871573,39.2471775 19.4852282,38.8162957 C20.6612744,36.2433158 19.7823346,37.8806667 21.4535581,35.3569303 C22.0353915,34.4459231 22.3324979,33.4856722 22.8276752,32.5007995 L25.4892534,26.6408068 C25.6749449,26.2837905 25.6749449,26.345345 25.8730159,25.9883287 C25.9720513,25.7174887 26.0710868,25.3850941 26.1701223,25.126565 L29.0297714,17.3091379 C29.2278423,16.6074161 29.0297714,15.9795597 29.2278423,15.3147707 C29.3144984,14.994687 29.3144984,14.9577543 29.4135338,14.5268725 C29.9087112,12.9018325 29.9087112,11.4614562 30.2058176,9.86103802 C30.502924,7.97746896 31.0971368,7.14032716 29.7106402,4.34575084 L27.0614415,0.701721807 C26.5662641,0.295461813 26.0710868,0.541679991 25.5759095,0.861763622 C24.3998633,1.53886361 23.8056505,-1.16108738e-14 22.6296043,-1.16108738e-14 C21.0574163,-1.16108738e-14 19.3861928,0.467814538 18.1111111,1.35419998 C17.2197919,1.99436724 16.1427812,3.22545813 15.7466393,4.24726357 L15.4495329,4.9859181 C14.8553201,6.08158899 14.2734867,6.53709262 13.7783094,7.17725988 C13.3821675,7.90360351 12.9860257,8.9992744 12.3051568,9.43015621 C11.4138376,9.95952529 10.6339333,10.0703235 10.138756,11.1413725 C9.84164958,11.8554053 9.34647224,13.1234289 8.8512949,13.6281761 L6.59823802,16.9151888 C5.80595428,17.9000615 5.21174147,20.0052269 4.72894357,20.7931251 C4.43183717,21.2363178 4.3328017,21.5933342 4.0356953,21.9626615 C2.56254272,23.5877014 3.54051796,23.6615669 2.56254272,24.2894232 C0.990354675,25.2496741 2.06736538,25.3112287 1.18842561,26.7146723 C0.79228374,27.2194196 0.990354675,26.5792523 0.891319207,27.3425286 C0.693248272,28.1796705 0.693248272,29.0045013 0.39614187,29.730845 C-2.74244565e-14,30.4325668 -2.74244565e-14,30.272525 -2.74244565e-14,31.2943304 C-2.74244565e-14,31.6636577 0.198070935,34.6182758 0.198070935,34.864494 C0.39614187,35.4184849 1.77025898,36.5510885 2.36447179,36.5510885 Z" id="Shape"></path>
                <path d="M222.928837,31.4297504 C223.027873,31.9714304 223.424015,31.9960522 223.324979,32.5377322 C223.225944,32.9193704 222.842181,33.1655886 222.64411,33.4856722 C222.842181,34.2489485 223.126908,34.7536958 223.919192,34.9506703 L225.293309,34.0889067 C226.481735,33.4610504 226.964533,32.4884886 227.657781,32.3038249 C227.657781,31.1096668 227.261639,31.4051286 226.481735,30.8388268 C225.095238,29.8785759 225.095238,29.0660559 223.324979,30.937314 C223.126908,31.1342886 223.027873,31.2327759 222.928837,31.4297504 Z" id="Shape"></path>
                <path d="M38.4752791,49.4036774 C39.0571125,49.2313247 39.4532543,48.6034683 38.958077,47.9140574 C38.6609706,48.1110319 38.6609706,48.1848974 38.4752791,48.6527119 C38.3762436,49.0712828 38.3762436,48.9851065 38.4752791,49.4036774 Z" id="Shape"></path>
            </g>
        </g>
    </g>
</svg>